<?xml version="1.0" encoding="UTF-8" standalone="no"?>
<!-- Created with Inkscape (http://www.inkscape.org/) -->

<svg
   xmlns:dc="http://purl.org/dc/elements/1.1/"
   xmlns:cc="http://creativecommons.org/ns#"
   xmlns:rdf="http://www.w3.org/1999/02/22-rdf-syntax-ns#"
   xmlns:svg="http://www.w3.org/2000/svg"
   xmlns="http://www.w3.org/2000/svg"
   xmlns:sodipodi="http://sodipodi.sourceforge.net/DTD/sodipodi-0.dtd"
   xmlns:inkscape="http://www.inkscape.org/namespaces/inkscape"
   id="svg2"
   version="1.1"
   inkscape:version="0.48.5 r10040"
   width="660.2375"
   height="239.925"
   xml:space="preserve"
   sodipodi:docname="heg-logo-vecteur-rvb.svg"><metadata
     id="metadata8"><rdf:RDF><cc:Work
         rdf:about=""><dc:format>image/svg+xml</dc:format><dc:type
           rdf:resource="http://purl.org/dc/dcmitype/StillImage" /><dc:title></dc:title></cc:Work></rdf:RDF></metadata><defs
     id="defs6"><clipPath
       clipPathUnits="userSpaceOnUse"
       id="clipPath18"><path
         d="m 0,0 5281.86,0 0,1919 L 0,1919 0,0 z"
         id="path20" /></clipPath></defs><sodipodi:namedview
     pagecolor="#ffffff"
     bordercolor="#666666"
     borderopacity="1"
     objecttolerance="10"
     gridtolerance="10"
     guidetolerance="10"
     inkscape:pageopacity="0"
     inkscape:pageshadow="2"
     inkscape:window-width="2560"
     inkscape:window-height="1340"
     id="namedview4"
     showgrid="false"
     inkscape:zoom="1.391078"
     inkscape:cx="493.1002"
     inkscape:cy="79.832482"
     inkscape:window-x="0"
     inkscape:window-y="49"
     inkscape:window-maximized="1"
     inkscape:current-layer="g16" /><g
     id="g10"
     inkscape:groupmode="layer"
     inkscape:label="ink_ext_XXXXXX"
     transform="matrix(1.25,0,0,-1.25,0,239.925)"><g
       id="g12"
       transform="scale(0.1,0.1)"><g
         id="g14"><g
           id="g16"
           clip-path="url(#clipPath18)"><path
             d="m 0,869.172 2170.62,0 0,145.805 -2170.62,0 0,-145.805 z"
             style="fill:#ea2b31;fill-opacity:1;fill-rule:nonzero;stroke:none"
             id="path22" /><path
             d="m 2003.4,1919.39 0,-198.61 c 26.38,39.71 57.91,59.57 94.6,59.57 18.81,0 35.78,-4.45 50.93,-13.33 15.12,-8.88 26.52,-20.23 34.18,-34.05 7.67,-13.82 12.91,-29.12 15.73,-45.9 2.81,-16.78 4.22,-42.81 4.22,-78.1 l 0,-230.61 -82,0 0,207.82 c 0,41.24 -1.57,67.43 -4.65,78.54 -3.1,11.1 -8.57,19.94 -16.41,26.48 -7.85,6.55 -17.69,9.83 -29.5,9.83 -13.56,0 -25.67,-4.21 -36.31,-12.61 -10.65,-8.4 -18.45,-21.06 -23.37,-37.97 -4.96,-16.91 -7.42,-41.91 -7.42,-75 l 0,-197.09 -81.99,0 0,541.03 81.99,0"
             style="fill:#231f20;fill-opacity:1;fill-rule:nonzero;stroke:none"
             id="path24" /><path
             d="m 3350.02,1607.44 c -0.59,30.56 -6.79,53.81 -18.63,69.71 -11.81,15.91 -26.21,23.88 -43.16,23.88 -18.15,0 -33.13,-8.41 -44.94,-25.19 -11.84,-16.79 -17.66,-39.59 -17.45,-68.4 l 124.18,0 z m -4.45,-105.18 82.89,-16.93 c -10.67,-38.06 -27.52,-67.05 -50.56,-86.94 -23.04,-19.88 -51.83,-29.82 -86.43,-29.82 -54.75,0 -95.27,22.37 -121.56,67.13 -20.75,35.86 -31.13,81.12 -31.13,135.79 0,65.28 13.63,116.41 40.92,153.39 27.26,36.98 61.76,55.47 103.47,55.47 46.85,0 83.81,-19.38 110.92,-58.13 27.07,-38.74 40.02,-98.1 38.82,-178.08 l -208.56,0 c 0.58,-30.93 7.31,-55.02 20.15,-72.23 12.83,-17.21 28.84,-25.8 48.02,-25.8 13.04,0 23.99,4.43 32.91,13.3 8.89,8.85 15.6,23.14 20.14,42.85"
             style="fill:#231f20;fill-opacity:1;fill-rule:nonzero;stroke:none"
             id="path26" /><path
             d="m 4439.71,1583.08 c 0,-41.81 6.34,-72.41 19.05,-91.82 12.7,-19.41 28.35,-29.11 46.96,-29.11 19.96,0 36.85,9.94 50.61,29.86 13.75,19.9 20.63,49.39 20.63,88.46 0,40.81 -6.59,71.1 -19.76,90.87 -13.19,19.78 -29.87,29.69 -50.03,29.69 -19.58,0 -35.71,-9.71 -48.41,-29.13 -12.71,-19.42 -19.05,-49.02 -19.05,-88.82 z m -73.09,-229.67 93.59,-13.37 c 1.55,-14.3 5.15,-24.13 10.81,-29.51 7.76,-7.66 20.02,-11.49 36.75,-11.49 21.41,0 37.46,4.07 48.18,12.17 7.18,5.42 12.63,14.15 16.34,26.2 2.53,8.61 3.78,24.47 3.78,47.57 l 0.28,57.18 c -24.68,-42.53 -55.64,-63.8 -92.97,-63.8 -41.61,0 -74.56,22.34 -98.89,67.01 -19.04,35.27 -28.56,79.2 -28.56,131.77 0,65.88 12.47,116.22 37.46,151.01 24.98,34.79 56.03,52.2 93.19,52.2 38.29,0 69.91,-21.28 94.85,-63.83 l 0,54.02 76.65,0 0,-351.6 c 0,-46.24 -3.01,-80.8 -9.06,-103.67 -6.01,-22.86 -14.48,-40.82 -25.37,-53.87 -10.9,-13.02 -25.43,-23.23 -43.62,-30.61 -18.18,-7.39 -41.2,-11.09 -68.99,-11.09 -52.51,0 -89.74,11.42 -111.72,34.26 -21.98,22.86 -32.97,51.81 -32.97,86.86 0,3.46 0.07,7.66 0.27,12.59"
             style="fill:#231f20;fill-opacity:1;fill-rule:nonzero;stroke:none"
             id="path28" /><path
             d="m 1931.78,628.621 29.8,0 0,-96.32 117.98,0 0,96.32 29.8,0 0,-224 -29.8,0 0,102.578 -117.98,0 0,-102.578 -29.8,0 0,224"
             style="fill:#231f20;fill-opacity:1;fill-rule:nonzero;stroke:none"
             id="path30" /><path
             d="m 2261.83,488.379 c -10.35,-7.52 -30.43,-7.84 -48.31,-10.969 -17.58,-3.121 -32.64,-9.422 -32.64,-29.172 0,-17.566 15.06,-23.84 31.39,-23.84 35.13,0 49.56,21.954 49.56,36.723 l 0,27.258 z m 43.3,-83.117 c -4.71,-2.832 -10.67,-4.403 -19.13,-4.403 -13.81,0 -22.6,7.52 -22.6,25.102 -14.74,-17.262 -34.51,-25.102 -57.1,-25.102 -29.49,0 -53.64,13.172 -53.64,45.493 0,36.707 27.28,44.558 54.89,49.898 29.5,5.629 54.6,3.75 54.6,23.828 0,23.231 -19.14,26.992 -36.09,26.992 -22.59,0 -39.21,-6.922 -40.47,-30.761 l -26.67,0 c 1.58,40.179 32.63,54.3 68.72,54.3 29.18,0 60.86,-6.597 60.86,-44.57 l 0,-83.461 c 0,-12.547 0,-18.18 8.47,-18.18 2.2,0 4.7,0.313 8.16,1.563 l 0,-20.699"
             style="fill:#231f20;fill-opacity:1;fill-rule:nonzero;stroke:none"
             id="path32" /><path
             d="m 2471.72,404.621 -25.1,0 0,25.75 -0.62,0 c -11.3,-20.09 -29.5,-29.512 -52.71,-29.512 -42.68,0 -55.85,24.461 -55.85,59.313 l 0,106.637 26.67,0 0,-109.797 c 0,-19.774 12.55,-32.614 32.94,-32.614 32.32,0 48,21.653 48,50.813 l 0,91.598 26.67,0 0,-162.188"
             style="fill:#231f20;fill-opacity:1;fill-rule:nonzero;stroke:none"
             id="path34" /><path
             d="m 2556.43,566.809 32.31,0 0,-23.5 -32.31,0 0,-100.731 c 0,-12.207 3.46,-14.418 20.09,-14.418 l 12.22,0 0,-23.539 -20.38,0 c -27.62,0 -38.6,5.66 -38.6,35.457 l 0,103.231 -27.61,0 0,23.5 27.61,0 0,48.64 26.67,0 0,-48.64"
             style="fill:#231f20;fill-opacity:1;fill-rule:nonzero;stroke:none"
             id="path36" /><path
             d="m 2738.41,501.25 c -1.26,25.43 -20.41,45.82 -46.76,45.82 -27.92,0 -44.55,-21.031 -46.44,-45.82 l 93.2,0 z m 25.72,-45.18 c -7.22,-35.769 -32.94,-55.211 -69.34,-55.211 -51.77,0 -76.25,35.782 -77.82,85.352 0,48.629 32.01,84.398 76.25,84.398 57.41,0 74.98,-53.687 73.41,-92.871 l -121.42,0 c -0.94,-28.238 15.06,-53.34 50.52,-53.34 21.97,0 37.34,10.661 42.04,31.672 l 26.36,0"
             style="fill:#231f20;fill-opacity:1;fill-rule:nonzero;stroke:none"
             id="path38" /><path
             d="m 2968.68,633.969 34.19,0 -41.09,-44.867 -20.08,0 26.98,44.867 z m 40.47,-132.719 c -1.26,25.43 -20.39,45.82 -46.75,45.82 -27.92,0 -44.56,-21.031 -46.43,-45.82 l 93.18,0 z m 25.72,-45.18 c -7.2,-35.769 -32.93,-55.211 -69.32,-55.211 -51.77,0 -76.25,35.782 -77.82,85.352 0,48.629 32.02,84.398 76.24,84.398 57.43,0 74.99,-53.687 73.42,-92.871 l -121.42,0 c -0.94,-28.238 15.07,-53.34 50.5,-53.34 21.97,0 37.35,10.661 42.06,31.672 l 26.34,0"
             style="fill:#231f20;fill-opacity:1;fill-rule:nonzero;stroke:none"
             id="path40" /><path
             d="m 3182.66,514.762 c -4.1,20.386 -18.21,32.308 -40.17,32.308 -38.59,0 -50.52,-30.449 -50.52,-63.359 0,-29.84 13.5,-59.313 47.39,-59.313 25.72,0 41.09,15.043 44.55,39.524 l 27.29,0 c -5.96,-39.524 -30.75,-63.063 -71.54,-63.063 -49.56,0 -75.92,34.512 -75.92,82.852 0,48.59 25.1,86.898 76.54,86.898 36.71,0 66.21,-17.281 69.97,-55.847 l -27.59,0"
             style="fill:#231f20;fill-opacity:1;fill-rule:nonzero;stroke:none"
             id="path42" /><path
             d="m 3318.49,424.398 c 27.95,0 50.53,21.954 50.53,61.161 0,39.531 -22.58,61.511 -50.53,61.511 -27.92,0 -50.51,-21.98 -50.51,-61.511 0,-39.207 22.59,-61.161 50.51,-61.161 z m 0,146.211 c 51.44,0 78.75,-37.347 78.75,-85.05 0,-47.368 -27.31,-84.7 -78.75,-84.7 -51.45,0 -78.74,37.332 -78.74,84.7 0,47.703 27.29,85.05 78.74,85.05"
             style="fill:#231f20;fill-opacity:1;fill-rule:nonzero;stroke:none"
             id="path44" /><path
             d="m 3437.71,404.621 26.6797,0 0,224 -26.6797,0 0,-224 z"
             style="fill:#231f20;fill-opacity:1;fill-rule:nonzero;stroke:none"
             id="path46" /><path
             d="m 3625.94,501.25 c -1.25,25.43 -20.39,45.82 -46.74,45.82 -27.91,0 -44.54,-21.031 -46.44,-45.82 l 93.18,0 z m 25.73,-45.18 c -7.21,-35.769 -32.95,-55.211 -69.33,-55.211 -51.77,0 -76.23,35.782 -77.81,85.352 0,48.629 31.99,84.398 76.23,84.398 57.43,0 75.01,-53.687 73.42,-92.871 l -121.42,0 c -0.93,-28.238 15.07,-53.34 50.54,-53.34 21.94,0 37.33,10.661 42.02,31.672 l 26.35,0"
             style="fill:#231f20;fill-opacity:1;fill-rule:nonzero;stroke:none"
             id="path48" /><path
             d="m 3853.73,424.398 c 35.75,0 49.57,30.723 49.57,61.161 0,32 -14.42,61.511 -51.13,61.511 -36.42,0 -48.63,-31.058 -48.63,-62.761 0,-30.438 15.67,-59.911 50.19,-59.911 z m 75.28,-19.777 -26.66,0 0,21.949 -0.63,0 c -8.78,-17.871 -29.47,-25.711 -51.75,-25.711 -49.89,0 -74.68,39.532 -74.68,85.352 0,45.777 24.49,84.398 74.04,84.398 16.62,0 40.46,-6.3 52.39,-25.437 l 0.63,0 0,83.449 26.66,0 0,-224"
             style="fill:#231f20;fill-opacity:1;fill-rule:nonzero;stroke:none"
             id="path50" /><path
             d="m 4090.28,501.25 c -1.25,25.43 -20.39,45.82 -46.74,45.82 -27.93,0 -44.56,-21.031 -46.43,-45.82 l 93.17,0 z m 25.74,-45.18 c -7.24,-35.769 -32.95,-55.211 -69.35,-55.211 -51.76,0 -76.24,35.782 -77.79,85.352 0,48.629 31.99,84.398 76.23,84.398 57.4,0 74.98,-53.687 73.42,-92.871 l -121.42,0 c -0.95,-28.238 15.05,-53.34 50.51,-53.34 21.94,0 37.31,10.661 42.02,31.672 l 26.38,0"
             style="fill:#231f20;fill-opacity:1;fill-rule:nonzero;stroke:none"
             id="path52" /><path
             d="m 4361.96,489.031 c 0,28.528 -12.53,58.039 -46.08,58.039 -34.22,0 -48.04,-27.929 -48.04,-59.011 0,-29.161 10.69,-61.797 45.82,-61.797 35.13,0 48.3,32.316 48.3,62.769 z m 26.38,-70.59 c 0,-52.73 -24.18,-79.691 -75.31,-79.691 -30.42,0 -65.58,12.23 -67.13,47.691 l 26.66,0 c 1.25,-19.472 24.48,-26.363 42.05,-26.363 34.82,0 48.61,25.094 48.61,61.492 l 0,10.66 -0.61,0 c -8.77,-19.75 -30.11,-29.5 -50.53,-29.5 -48.29,0 -72.47,37.961 -72.47,82.231 0,38.258 18.83,85.648 75,85.648 20.39,0 38.58,-9.121 48.3,-26.988 l 0.31,0 0,23.188 25.12,0 0,-148.368"
             style="fill:#231f20;fill-opacity:1;fill-rule:nonzero;stroke:none"
             id="path54" /><path
             d="m 4548.64,501.25 c -1.26,25.43 -20.4,45.82 -46.74,45.82 -27.91,0 -44.53,-21.031 -46.42,-45.82 l 93.16,0 z m 25.74,-45.18 c -7.21,-35.769 -32.95,-55.211 -69.33,-55.211 -51.79,0 -76.23,35.782 -77.82,85.352 0,48.629 32,84.398 76.23,84.398 57.44,0 74.98,-53.687 73.42,-92.871 l -121.4,0 c -0.96,-28.238 15.05,-53.34 50.49,-53.34 21.97,0 37.34,10.661 42.06,31.672 l 26.35,0"
             style="fill:#231f20;fill-opacity:1;fill-rule:nonzero;stroke:none"
             id="path56" /><path
             d="m 4628.33,455.762 c 0.95,-23.84 21.64,-31.364 43.62,-31.364 16.62,0 39.21,3.762 39.21,24.153 0,20.687 -26.36,24.14 -53.03,30.109 -26.35,5.949 -52.99,14.762 -52.99,45.809 0,32.633 32.29,46.14 60.54,46.14 35.77,0 64.32,-11.32 66.52,-50.839 l -26.69,0 c -1.87,20.699 -20.07,27.3 -37.63,27.3 -16.01,0 -34.52,-4.398 -34.52,-20.718 0,-19.153 28.22,-22.25 53.02,-28.223 26.68,-5.969 53.03,-14.77 53.03,-46.117 0,-38.621 -36.1,-51.153 -69.03,-51.153 -36.4,0 -67.14,14.743 -68.71,54.903 l 26.66,0"
             style="fill:#231f20;fill-opacity:1;fill-rule:nonzero;stroke:none"
             id="path58" /><path
             d="m 4813.45,566.809 32.3,0 0,-23.5 -32.3,0 0,-100.731 c 0,-12.207 3.44,-14.418 20.09,-14.418 l 12.21,0 0,-23.539 -20.39,0 c -27.6,0 -38.57,5.66 -38.57,35.457 l 0,103.231 -27.63,0 0,23.5 27.63,0 0,48.64 26.66,0 0,-48.64"
             style="fill:#231f20;fill-opacity:1;fill-rule:nonzero;stroke:none"
             id="path60" /><path
             d="m 4884.36,566.809 26.66,0 0,-162.188 -26.66,0 0,162.188 z m 26.66,29.191 -26.66,0 0,32.621 26.66,0 0,-32.621"
             style="fill:#231f20;fill-opacity:1;fill-rule:nonzero;stroke:none"
             id="path62" /><path
             d="m 5029.92,424.398 c 27.91,0 50.5,21.954 50.5,61.161 0,39.531 -22.59,61.511 -50.5,61.511 -27.94,0 -50.53,-21.98 -50.53,-61.511 0,-39.207 22.59,-61.161 50.53,-61.161 z m 0,146.211 c 51.45,0 78.75,-37.347 78.75,-85.05 0,-47.368 -27.3,-84.7 -78.75,-84.7 -51.44,0 -78.75,37.332 -78.75,84.7 0,47.703 27.31,85.05 78.75,85.05"
             style="fill:#231f20;fill-opacity:1;fill-rule:nonzero;stroke:none"
             id="path64" /><path
             d="m 5147.58,566.809 25.09,0 0,-25.7 0.62,0 c 11.3,20.082 29.48,29.5 52.72,29.5 42.67,0 55.85,-24.488 55.85,-59.3 l 0,-106.688 -26.69,0 0,109.801 c 0,19.777 -12.52,32.648 -32.92,32.648 -32.34,0 -48.01,-21.648 -48.01,-50.82 l 0,-91.629 -26.66,0 0,162.188"
             style="fill:#231f20;fill-opacity:1;fill-rule:nonzero;stroke:none"
             id="path66" /><path
             d="M 2099.32,33.25 C 2082.07,9.71094 2053.82,0 2027.47,0 c -66.82,0 -106.66,54.5703 -106.66,112.93 0,65.242 35.76,121.73 106.66,121.73 48.95,0 87.85,-21.969 96.32,-74.359 l -29.81,0 c -5.96,33.879 -33.25,49.269 -66.51,49.269 -54.28,0 -76.86,-47.07 -76.86,-95.058 0,-46.7503 26.97,-89.4339 76.86,-89.4339 46.12,0 73.73,32.3321 71.85,73.1016 l -71.53,0 0,25.1013 98.2,0 0,-117.96069 -18.84,0 -7.83,27.92969"
             style="fill:#231f20;fill-opacity:1;fill-rule:nonzero;stroke:none"
             id="path68" /><path
             d="m 2285.67,101.941 c -1.26,25.43 -20.39,45.821 -46.73,45.821 -27.93,0 -44.56,-21.043 -46.44,-45.821 l 93.17,0 z m 25.74,-45.1793 C 2304.19,21 2278.46,1.55078 2242.07,1.55078 c -51.77,0 -76.24,35.76952 -77.81,85.34762 0,48.6216 32,84.3906 76.23,84.3906 57.43,0 74.99,-53.668 73.43,-92.8476 l -121.42,0 c -0.95,-28.25 15.05,-53.3633 50.51,-53.3633 21.97,0 37.33,10.6914 42.03,31.6836 l 26.37,0"
             style="fill:#231f20;fill-opacity:1;fill-rule:nonzero;stroke:none"
             id="path70" /><path
             d="m 2349.05,167.512 25.1,0 0,-25.723 0.63,0 c 11.29,20.09 29.49,29.5 52.71,29.5 42.67,0 55.84,-24.48 55.84,-59.289 l 0,-106.67969 -26.66,0 0,109.80069 c 0,19.77 -12.56,32.641 -32.95,32.641 -32.32,0 -48,-21.641 -48,-50.8401 l 0,-91.60159 -26.67,0 0,162.19169"
             style="fill:#231f20;fill-opacity:1;fill-rule:nonzero;stroke:none"
             id="path72" /><path
             d="m 2553.31,234.66 34.18,0 26.97,-44.871 -20.06,0 -41.09,44.871 z m 90.35,-132.719 c -1.27,25.43 -20.4,45.821 -46.76,45.821 -27.92,0 -44.55,-21.043 -46.43,-45.821 l 93.19,0 z m 25.72,-45.1793 C 2662.17,21 2636.43,1.55078 2600.04,1.55078 c -51.77,0 -76.23,35.76952 -77.81,85.34762 0,48.6216 32,84.3906 76.25,84.3906 57.4,0 74.98,-53.668 73.41,-92.8476 l -121.42,0 c -0.94,-28.25 15.06,-53.3633 50.51,-53.3633 21.96,0 37.35,10.6914 42.04,31.6836 l 26.36,0"
             style="fill:#231f20;fill-opacity:1;fill-rule:nonzero;stroke:none"
             id="path74" /><path
             d="m 2780.13,5.32031 -28.56,0 -60.22,162.19169 29.79,0 45.49,-135.2112 0.63,0 44.24,135.2112 27.92,0 -59.29,-162.19169"
             style="fill:#231f20;fill-opacity:1;fill-rule:nonzero;stroke:none"
             id="path76" /><path
             d="m 2984.05,101.941 c -1.25,25.43 -20.39,45.821 -46.74,45.821 -27.93,0 -44.55,-21.043 -46.44,-45.821 l 93.18,0 z m 25.73,-45.1793 C 3002.57,21 2976.85,1.55078 2940.45,1.55078 c -51.77,0 -76.24,35.76952 -77.81,85.34762 0,48.6216 32.01,84.3906 76.24,84.3906 57.42,0 74.98,-53.668 73.41,-92.8476 l -121.42,0 c -0.94,-28.25 15.07,-53.3633 50.51,-53.3633 21.96,0 37.34,10.6914 42.05,31.6836 l 26.35,0"
             style="fill:#231f20;fill-opacity:1;fill-rule:nonzero;stroke:none"
             id="path78" /></g></g></g></g></svg>